<svg width="750" height="500" viewBox="0 0 750 500" fill="none" xmlns="http://www.w3.org/2000/svg">
<path d="M141.09 429.02C141.09 429.02 141.09 414.22 134.12 392.88C127.15 371.55 91.21 367.25 94.96 336.68C115.08 343.92 130.9 373.77 134.39 382.85C122.59 336.95 130.9 304.5 130.9 304.5C130.9 304.5 146.99 338.83 141.09 383.09C162.28 329.98 178.98 322.74 178.98 322.74C178.98 322.74 174.62 354.93 163.09 371.82C151.56 388.72 142.71 388.45 142.71 388.45C142.71 388.45 142.98 416.22 148.07 429.02H141.09Z" fill="white"/>
<path d="M603.78 429.02C603.78 429.02 603.78 414.22 596.81 392.88C589.84 371.55 553.9 367.25 557.65 336.68C577.77 343.92 593.59 373.77 597.08 382.85C585.28 336.95 593.59 304.5 593.59 304.5C593.59 304.5 609.68 338.83 603.78 383.09C624.97 329.98 641.67 322.74 641.67 322.74C641.67 322.74 637.31 354.93 625.78 371.82C614.25 388.72 605.4 388.45 605.4 388.45C605.4 388.45 605.67 416.22 610.76 429.02H603.78Z" fill="white"/>
<path d="M248.85 397.84L251.02 414.47L246.19 422.79L234.52 418.23L230.88 402" fill="#F0C9CF"/>
<path d="M275.93 426.13L250.48 411.39L245.65 418.23H234.52L233.31 428.56H275.27C276.61 428.55 277.08 426.79 275.93 426.13Z" fill="#1F2251"/>
<path d="M158.32 397.84L155.11 414.47L159.93 422.79L171.6 418.23L176.29 402" fill="#F0C9CF"/>
<path d="M261.55 235.71L242.48 260.8C241.82 261.67 241.42 262.71 241.35 263.8L239.72 286.13L232.88 239.19L242.53 223.03L241.56 219.82L237.91 207.72L256.71 200.62L257.85 204L263.82 221.7C265.45 226.46 264.59 231.7 261.55 235.71Z" fill="#F0C9CF"/>
<path d="M257.87 204L241.57 219.82L237.93 207.72L256.73 200.62L257.87 204Z" fill="#D683A7"/>
<path d="M252.33 402.14L229.27 405.89L211.15 328.06L206.65 308.75L206.54 308.26L177.14 407.85L154.03 401.51L175.52 263.13L177.14 252.65L235.7 251.78L236.33 257.49L252.33 402.14Z" fill="#6096BA" fill-opacity="0.6"/>
<path d="M236.33 257.49L175.52 263.13L176.39 257.49L177.14 252.65L235.7 251.78L236.22 256.52L236.33 257.49Z" fill="#7988B8"/>
<path d="M236.22 256.52C223.51 258.36 185.39 257.69 176.38 257.5L177.14 252.66L235.69 251.79L236.22 256.52Z" fill="#1F2251"/>
<path d="M259.71 199.5L246.16 207.57L244.42 208.6L240.33 211.04V211.15L240.25 212.89L239.63 227.1L239.55 228.84L238.93 243.05L238.86 244.79L238.66 249.25C238.66 249.25 241.08 251.93 240.4 254.21C240.23 254.77 236.21 255.2 230.21 255.49C229.64 255.52 229.06 255.54 228.47 255.57C224.32 255.74 219.4 255.85 214.26 255.91C213.68 255.91 213.1 255.92 212.52 255.92C207.79 255.95 202.92 255.92 198.31 255.84C197.72 255.83 197.14 255.81 196.57 255.8C191.17 255.67 186.21 255.47 182.36 255.16C181.75 255.12 181.16 255.07 180.62 255.01C176.75 254.64 174.39 254.16 174.44 253.54C174.71 250.33 176.72 248.17 176.72 248.17L176.73 244.79L176.74 243.05L176.79 228.84L176.8 227.1L176.85 212.89V211.99L175.41 211.15L166.39 205.9L164.65 204.88L153.39 198.31L154.01 196.93L154.8 195.19L161.19 180.97L161.98 179.24L164.66 173.27L165.22 172.03C165.59 171.22 165.98 170.42 166.41 169.66C167.31 168.01 168.35 166.47 169.51 165.02C169.98 164.42 170.48 163.83 170.99 163.28C173.72 160.28 177 157.81 180.63 156C181.2 155.71 181.79 155.44 182.37 155.19C184.88 154.11 187.54 153.34 190.3 152.91L194.48 152.26L196.58 151.93L198.32 151.66L198.38 151.65L212.53 152.83L214.27 152.98L218.56 153.34L222.17 153.84C222.39 153.87 222.62 153.9 222.84 153.95C224.77 154.25 226.66 154.74 228.48 155.37C229.07 155.57 229.65 155.79 230.22 156.03C234.3 157.7 237.99 160.17 241.08 163.29C241.64 163.85 242.18 164.44 242.7 165.03C243.31 165.73 243.89 166.47 244.43 167.23C245.06 168.09 245.64 168.99 246.17 169.92C246.76 170.92 247.29 171.96 247.78 173.03L250.58 179.26L251.37 180.99L257.78 195.21L258.57 196.95L259.71 199.5Z" fill="#6096BA"/>
<path opacity="0.25" d="M257.77 195.18H246.16V180.96H251.36L250.57 179.23H246.16V169.89C245.62 168.97 245.05 168.06 244.42 167.2V179.23H230.2V165H242.68C242.17 164.4 241.62 163.81 241.06 163.26H230.2V156C229.62 155.76 229.04 155.54 228.46 155.34V163.26H214.25V152.95L212.51 152.8V163.25H198.3V151.63L196.56 151.9V163.25H182.35V155.16C181.76 155.41 181.17 155.67 180.61 155.97V163.25H170.97C170.46 163.81 169.96 164.4 169.49 164.99H180.61V179.21H166.39V169.63C165.96 170.4 165.57 171.2 165.2 172L164.64 173.24V179.21H161.96L161.17 180.94H164.64V195.16H154.79L154 196.9H164.64V204.84L166.38 205.86V196.9H180.6V211.11H175.4L176.84 211.95V212.85H180.6V227.06H176.79L176.78 228.8H180.6V243.01H176.72L176.71 244.75H180.6V254.97C181.15 255.02 181.73 255.08 182.34 255.12V244.75H196.55V255.76C197.13 255.77 197.71 255.79 198.29 255.8V244.75H212.5V255.89C213.09 255.89 213.67 255.88 214.24 255.88V244.76H228.45V255.55C229.05 255.52 229.63 255.5 230.19 255.47V244.77H238.84L238.91 243.03H230.19V228.82H239.53L239.61 227.08H230.19V212.87H240.23L240.31 211.13H230.2V196.92H244.41V208.59L246.15 207.56V196.92H258.55L257.77 195.18ZM180.59 195.18H166.37V180.96H180.59V195.18ZM196.55 243.05H182.34V228.84H196.55V243.05ZM196.55 227.09H182.34V212.88H196.55V227.09ZM196.55 211.14H182.34V196.93H196.55V211.14ZM196.55 195.18H182.34V180.96H196.55V195.18ZM196.55 179.22H182.34V165H196.55V179.22ZM212.5 243.05H198.29V228.84H212.5V243.05ZM212.5 227.09H198.29V212.88H212.5V227.09ZM212.5 211.14H198.29V196.93H212.5V211.14ZM212.5 195.18H198.29V180.96H212.5V195.18ZM212.5 179.22H198.29V165H212.5V179.22ZM228.46 243.05H214.25V228.84H228.46V243.05ZM228.46 227.09H214.25V212.88H228.46V227.09ZM228.46 211.14H214.25V196.93H228.46V211.14ZM228.46 195.18H214.25V180.96H228.46V195.18ZM228.46 179.22H214.25V165H228.46V179.22ZM244.42 195.18H230.2V180.96H244.41V195.18H244.42Z" fill="white"/>
<path d="M222.82 153.92C221.46 159.65 218.26 165.23 210.9 165.17C198.94 165.07 195.39 155.95 194.45 152.24L198.36 151.63L218.54 153.31L222.15 153.81C222.37 153.84 222.6 153.87 222.82 153.92Z" fill="white"/>
<path d="M237.93 207.72L236.4 184.53" stroke="#1F2251" stroke-width="0.5252" stroke-miterlimit="10" stroke-linecap="round" stroke-linejoin="round"/>
<path d="M227.93 114.92C227.93 114.92 230.43 117.65 228.47 122.39C226.51 127.13 225.52 131.15 225.34 135.63C225.19 139.33 209.1 141.5 203.57 142.13C202.42 142.27 201.73 142.33 201.73 142.33L197.35 133.73C196.77 132.21 195.37 129.33 194.16 126C192.16 120.6 190.63 114.02 193.78 110.15C198.87 103.89 204.55 106.66 213.25 102.38C221.95 98.08 226.33 94.09 231.33 99.96C236.33 105.82 227.93 114.92 227.93 114.92Z" fill="#1F2251"/>
<path d="M205.04 140.27L203.57 142.13C202.42 142.27 201.73 142.33 201.73 142.33L197.35 133.73C196.77 132.21 195.37 129.33 194.16 126C198.48 124.24 201.47 119.72 201.47 119.72L205.04 140.27Z" fill="#161937"/>
<path d="M218.53 153.31C218.53 153.31 218.94 161.82 209.73 161.48C200.53 161.14 198.35 151.63 198.35 151.63L200.9 151.09C200.9 151.09 201.83 140.96 200.9 133.73L218.54 142.71C218.37 142.87 218.21 143.06 218.07 143.26C216.02 146.08 216.25 152.5 216.25 152.5L218.53 153.31Z" fill="#F0C9CF"/>
<path d="M216.25 152.5C204.9 152.83 201.73 139.56 201.73 139.56L218.07 143.26C216.02 146.07 216.25 152.5 216.25 152.5Z" fill="#D683A7"/>
<path d="M226.51 134.48C226.54 136.13 226.46 137.72 226.24 139.2C225.32 145.31 222.06 149.64 214.18 149.01C202.55 148.08 200.44 136.65 200.44 136.65C200.44 136.65 197.45 139.15 194.54 136.29C191.64 133.43 193.11 129.09 195.93 128.6C197.45 128.34 198.94 129.88 200.01 131.36C200.46 132.01 201.48 131.68 201.48 130.89V119.71C201.48 119.71 215.64 120.3 224.04 117.21C224.09 117.19 224.13 117.18 224.19 117.16C225.53 118.4 226.03 120.05 226.18 121.86C226.38 124.38 225.93 127.2 226.2 129.57C226.37 131.22 226.5 132.88 226.51 134.48Z" fill="#F0C9CF"/>
<path d="M218.07 136.74L219.19 136.08C219.94 135.64 220.25 134.71 219.9 133.91L218.07 129.68" stroke="#C85E8B" stroke-width="0.5252" stroke-miterlimit="9" stroke-linecap="round"/>
<path d="M214.04 132.68C214.04 133.24 213.68 133.69 213.24 133.69C212.8 133.69 212.44 133.24 212.44 132.68C212.44 132.12 212.8 131.67 213.24 131.67C213.68 131.68 214.04 132.13 214.04 132.68Z" fill="black"/>
<path d="M222.83 133.21C223.272 133.21 223.63 132.758 223.63 132.2C223.63 131.642 223.272 131.19 222.83 131.19C222.388 131.19 222.03 131.642 222.03 132.2C222.03 132.758 222.388 133.21 222.83 133.21Z" fill="black"/>
<path d="M194.97 131.68C196.68 130.71 198.76 132.35 198.35 134.8" stroke="#C85E8B" stroke-width="0.5252" stroke-miterlimit="9" stroke-linecap="round"/>
<path d="M214.25 141.3C214.25 141.3 216.49 143.58 219.48 141.79" stroke="#C85E8B" stroke-width="0.5252" stroke-miterlimit="9" stroke-linecap="round"/>
<path d="M209.33 128.32C209.33 128.32 210.99 125.81 214.31 126.92" stroke="#1F2251" stroke-width="0.7879" stroke-miterlimit="10" stroke-linecap="round" stroke-linejoin="round"/>
<path d="M225.33 127.05C225.33 127.05 223.35 124.86 220.16 126.87" stroke="#1F2251" stroke-width="0.7879" stroke-miterlimit="10" stroke-linecap="round" stroke-linejoin="round"/>
<path d="M209.74 139.56C211.297 139.56 212.56 138.297 212.56 136.74C212.56 135.183 211.297 133.92 209.74 133.92C208.182 133.92 206.92 135.183 206.92 136.74C206.92 138.297 208.182 139.56 209.74 139.56Z" fill="#EAB7C0"/>
<path d="M226.51 134.48C226.54 136.13 226.46 137.72 226.24 139.2C225.83 139.42 225.36 139.56 224.85 139.56C223.3 139.56 222.03 138.3 222.03 136.74C222.03 135.19 223.29 133.92 224.85 133.92C225.47 133.92 226.04 134.12 226.51 134.48Z" fill="#EAB7C0"/>
<path d="M232.51 229.31H218.02C216.28 229.31 215.16 227.9 215.51 226.16L221.65 195.9C222 194.16 223.7 192.75 225.43 192.75H242C243.74 192.75 244.86 194.16 244.51 195.9L236.29 226.16C235.94 227.9 234.25 229.31 232.51 229.31Z" fill="#2A3551"/>
<path d="M234.59 230.6H220.1C218.36 230.6 217.24 229.19 217.59 227.45L223.73 197.19C224.08 195.45 225.78 194.04 227.51 194.04H242C243.74 194.04 244.86 195.45 244.51 197.19L238.37 227.45C238.02 229.19 236.33 230.6 234.59 230.6Z" fill="#364380"/>
<path d="M231.06 224.49C231.06 227.48 227.48 230.12 227.48 230.12C227.48 230.12 228.33 234.2 221.59 235.57C214.84 236.96 208 231.11 208 231.11L164.44 240.3C163.31 240.54 162.17 240.66 161.05 240.66C156.17 240.66 151.46 238.47 148.31 234.59C144.36 229.73 143.52 223.03 146.16 217.35L152.45 203.76L154.64 199.03L176.86 211.98L175.27 214.71L172.97 218.68L208.23 217.43C208.23 217.43 211.85 214.92 214.18 211.84C216.51 208.75 217.35 208.04 219.19 209.2C221.02 210.36 219.01 215.64 217.45 217.65C223.08 220.78 229.84 218.36 232.56 218.76C235.26 219.17 235.3 222.39 231.06 224.49Z" fill="#F0C9CF"/>
<path d="M231.05 224.49C227.59 225.99 219.07 224.65 216.66 223.04" stroke="#C85E8B" stroke-width="0.5252" stroke-miterlimit="9" stroke-linecap="round"/>
<path d="M227.48 230.12C222.7 231.06 217.33 230.75 214.61 228.02" stroke="#C85E8B" stroke-width="0.5252" stroke-miterlimit="9" stroke-linecap="round"/>
<path d="M225.93 207.23C225.03 207.23 224.44 206.5 224.62 205.6L225.78 199.71C225.96 198.81 226.83 198.08 227.73 198.08C228.63 198.08 229.22 198.81 229.04 199.71L227.88 205.6C227.71 206.5 226.83 207.23 225.93 207.23Z" fill="#445EC7"/>
<path d="M172.94 218.68H161.23" stroke="#C85E8B" stroke-width="0.5252" stroke-miterlimit="9" stroke-linecap="round"/>
<path d="M242.54 223.04L248.76 215.46" stroke="#C85E8B" stroke-width="0.5252" stroke-miterlimit="9" stroke-linecap="round"/>
<path d="M176.83 211.97L189.52 187.57" stroke="#1F2251" stroke-width="0.5252" stroke-miterlimit="10" stroke-linecap="round" stroke-linejoin="round"/>
<path d="M176.83 211.98L175.24 214.71L152.43 203.75L154.61 199.02L176.83 211.98Z" fill="#D683A7"/>
<path d="M206.54 308.26L214.6 281.98" stroke="#1F2251" stroke-width="0.5252" stroke-miterlimit="10" stroke-linecap="round" stroke-linejoin="round"/>
<path d="M130.19 426.13L155.64 411.39L160.47 418.23H171.6L172.81 428.56H130.85C129.52 428.55 129.04 426.79 130.19 426.13Z" fill="#1F2251"/>
<path d="M176.67 408.53L154.27 403.92C152.75 403.61 151.77 402.12 152.08 400.6L152.81 397.04C153.12 395.52 154.61 394.54 156.13 394.85L178.53 399.46C180.05 399.77 181.03 401.26 180.72 402.78L179.99 406.34C179.68 407.87 178.19 408.84 176.67 408.53Z" fill="#99A3CA"/>
<path d="M155.69 394.81L178.97 399.6" stroke="#1F2251" stroke-width="0.5252" stroke-miterlimit="10" stroke-linecap="round" stroke-linejoin="round"/>
<path d="M252.66 404.24L230.17 408.41C228.64 408.69 227.18 407.68 226.89 406.16L226.23 402.59C225.95 401.06 226.96 399.6 228.48 399.31L250.97 395.14C252.5 394.86 253.96 395.87 254.25 397.39L254.91 400.96C255.19 402.49 254.19 403.96 252.66 404.24Z" fill="#99A3CA"/>
<path d="M228.06 399.43L251.42 395.1" stroke="#1F2251" stroke-width="0.5252" stroke-miterlimit="10" stroke-linecap="round" stroke-linejoin="round"/>
<path d="M183.18 246.34L234.23 238.83" stroke="#1F2251" stroke-width="0.5252" stroke-miterlimit="10" stroke-linecap="round" stroke-linejoin="round"/>
<path d="M213.97 285.2L211.15 328.06L206.65 308.75L206.68 307.77L213.97 285.2Z" fill="#7988B8"/>
<path d="M411.64 156.93L400.53 198.78C398.76 205.45 391.8 209.32 385.2 207.31L377.71 205.03L400.33 151.81L411.64 156.93Z" fill="#F0C9CF"/>
<path d="M404.84 145.32C403.95 144.2 396.88 147.96 395.18 148.36C393.48 148.76 395 153 398.13 152.58C401.26 152.16 402.24 148.86 402.24 148.86L404.84 145.32Z" fill="#D683A7"/>
<path d="M399.65 136.32L399.44 163.69L402.39 163.06V136.33C402.39 135.74 402.01 135.21 401.44 135.03C400.56 134.75 399.65 135.4 399.65 136.32Z" fill="#2A3551"/>
<path d="M403.86 145.79C403.86 145.79 394.83 154.84 396.57 157.46C398.31 160.07 403.88 155.31 404.95 153.84C404.82 156.86 408.67 159.69 410.98 159.34C414.47 158.8 415.87 155.25 414.8 153.64C413.73 152.03 407.22 148.28 407.22 148.28C407.22 148.28 405.59 143.38 403.86 145.79Z" fill="#F0C9CF"/>
<path d="M315.71 397.84L312.49 414.47L317.32 422.79L328.98 418.23L333.68 402" fill="#F0C9CF"/>
<path d="M287.58 426.13L313.03 411.39L317.86 418.23H328.99L330.2 428.56H288.24C286.9 428.55 286.42 426.79 287.58 426.13Z" fill="#1F2251"/>
<path d="M425.23 397.84L428.45 414.47L423.62 422.79L411.95 418.23L407.26 402" fill="#F0C9CF"/>
<path d="M453.36 426.13L427.91 411.39L423.08 418.23H411.95L410.74 428.56H452.7C454.04 428.55 454.51 426.79 453.36 426.13Z" fill="#1F2251"/>
<path d="M427.33 391.95L403.28 397.21L366.57 274.29L337.27 395.1L313.43 391.59L328.74 263.16L331.09 243.38L366.73 240.65L390.67 238.83L391.12 240.65L391.37 241.72L427.33 391.95Z" fill="#008F8F"/>
<path d="M391.37 241.72L328.74 263.16L331.09 243.38L366.73 240.65H391.12L391.37 241.72Z" fill="#4257B2"/>
<path d="M392.98 237.86C393.19 239.4 392.12 240.83 390.56 241.06L333.14 249.51C331.19 249.79 329.45 248.24 329.53 246.26L331.18 201.23L332.39 168.43L341.16 149.28L342.98 145.32H363.12L365.32 145.61C365.87 145.68 366.41 145.77 366.95 145.87C375.64 147.54 383.08 153.17 387.05 161.14L399.46 186.12L387.65 198.06L392.98 237.86Z" fill="#88E7BE"/>
<path d="M339.74 163.4C339.37 164.3 339.21 165.27 339.29 166.24L341.5 195.18L339.65 196.26L331.18 201.23L320.57 207.45L318.79 208.49L315.43 179.66C313.96 167.01 320.79 154.86 332.35 149.54L339.51 146.24L342.99 144.64L345.48 145.31L346.95 145.71L344.1 152.67L339.74 163.4Z" fill="#88E7BE"/>
<path opacity="0.25" d="M320.31 237.18C320.31 238.33 319.38 239.26 318.23 239.26C317.08 239.26 316.15 238.33 316.15 237.18C316.15 236.03 317.08 235.1 318.23 235.1C319.38 235.11 320.31 236.04 320.31 237.18Z" fill="white"/>
<path opacity="0.25" d="M332.62 237.18C332.62 238.33 331.69 239.26 330.54 239.26C329.39 239.26 328.46 238.33 328.46 237.18C328.46 236.03 329.39 235.1 330.54 235.1C331.69 235.1 332.62 236.04 332.62 237.18Z" fill="white"/>
<path opacity="0.25" d="M344.92 237.18C344.92 238.33 343.99 239.26 342.84 239.26C341.69 239.26 340.76 238.33 340.76 237.18C340.76 236.03 341.69 235.1 342.84 235.1C343.99 235.11 344.92 236.04 344.92 237.18Z" fill="white"/>
<path opacity="0.25" d="M357.23 237.18C357.23 238.33 356.3 239.26 355.15 239.26C354 239.26 353.07 238.33 353.07 237.18C353.07 236.03 354 235.1 355.15 235.1C356.3 235.11 357.23 236.04 357.23 237.18Z" fill="white"/>
<path opacity="0.25" d="M369.54 237.18C369.54 238.33 368.61 239.26 367.46 239.26C366.31 239.26 365.38 238.33 365.38 237.18C365.38 236.03 366.31 235.1 367.46 235.1C368.61 235.1 369.54 236.04 369.54 237.18Z" fill="white"/>
<path opacity="0.25" d="M381.84 237.18C381.84 238.33 380.91 239.26 379.76 239.26C378.61 239.26 377.68 238.33 377.68 237.18C377.68 236.03 378.61 235.1 379.76 235.1C380.91 235.11 381.84 236.04 381.84 237.18Z" fill="white"/>
<path opacity="0.25" d="M394.15 237.18C394.15 238.33 393.22 239.26 392.07 239.26C390.92 239.26 389.99 238.33 389.99 237.18C389.99 236.03 390.92 235.1 392.07 235.1C393.22 235.11 394.15 236.04 394.15 237.18Z" fill="white"/>
<path opacity="0.25" d="M406.45 237.18C406.45 238.33 405.52 239.26 404.37 239.26C403.22 239.26 402.29 238.33 402.29 237.18C402.29 236.03 403.22 235.1 404.37 235.1C405.52 235.1 406.45 236.04 406.45 237.18Z" fill="white"/>
<path opacity="0.25" d="M320.31 225.7C320.31 226.85 319.38 227.78 318.23 227.78C317.08 227.78 316.15 226.85 316.15 225.7C316.15 224.55 317.08 223.62 318.23 223.62C319.38 223.62 320.31 224.55 320.31 225.7Z" fill="white"/>
<path opacity="0.25" d="M332.62 225.7C332.62 226.85 331.69 227.78 330.54 227.78C329.39 227.78 328.46 226.85 328.46 225.7C328.46 224.55 329.39 223.62 330.54 223.62C331.69 223.62 332.62 224.55 332.62 225.7Z" fill="white"/>
<path opacity="0.25" d="M344.92 225.7C344.92 226.85 343.99 227.78 342.84 227.78C341.69 227.78 340.76 226.85 340.76 225.7C340.76 224.55 341.69 223.62 342.84 223.62C343.99 223.62 344.92 224.55 344.92 225.7Z" fill="white"/>
<path opacity="0.25" d="M357.23 225.7C357.23 226.85 356.3 227.78 355.15 227.78C354 227.78 353.07 226.85 353.07 225.7C353.07 224.55 354 223.62 355.15 223.62C356.3 223.62 357.23 224.55 357.23 225.7Z" fill="white"/>
<path opacity="0.25" d="M369.54 225.7C369.54 226.85 368.61 227.78 367.46 227.78C366.31 227.78 365.38 226.85 365.38 225.7C365.38 224.55 366.31 223.62 367.46 223.62C368.61 223.62 369.54 224.55 369.54 225.7Z" fill="white"/>
<path opacity="0.25" d="M381.84 225.7C381.84 226.85 380.91 227.78 379.76 227.78C378.61 227.78 377.68 226.85 377.68 225.7C377.68 224.55 378.61 223.62 379.76 223.62C380.91 223.62 381.84 224.55 381.84 225.7Z" fill="white"/>
<path opacity="0.25" d="M394.15 225.7C394.15 226.85 393.22 227.78 392.07 227.78C390.92 227.78 389.99 226.85 389.99 225.7C389.99 224.55 390.92 223.62 392.07 223.62C393.22 223.62 394.15 224.55 394.15 225.7Z" fill="white"/>
<path opacity="0.25" d="M406.45 225.7C406.45 226.85 405.52 227.78 404.37 227.78C403.22 227.78 402.29 226.85 402.29 225.7C402.29 224.55 403.22 223.62 404.37 223.62C405.52 223.62 406.45 224.55 406.45 225.7Z" fill="white"/>
<path opacity="0.25" d="M318.23 216.3C319.378 216.3 320.31 215.369 320.31 214.22C320.31 213.071 319.378 212.14 318.23 212.14C317.081 212.14 316.15 213.071 316.15 214.22C316.15 215.369 317.081 216.3 318.23 216.3Z" fill="white"/>
<path opacity="0.25" d="M332.62 214.22C332.62 215.37 331.69 216.3 330.54 216.3C329.39 216.3 328.46 215.37 328.46 214.22C328.46 213.07 329.39 212.14 330.54 212.14C331.69 212.14 332.62 213.07 332.62 214.22Z" fill="white"/>
<path opacity="0.25" d="M344.92 214.22C344.92 215.37 343.99 216.3 342.84 216.3C341.69 216.3 340.76 215.37 340.76 214.22C340.76 213.07 341.69 212.14 342.84 212.14C343.99 212.14 344.92 213.07 344.92 214.22Z" fill="white"/>
<path opacity="0.25" d="M357.23 214.22C357.23 215.37 356.3 216.3 355.15 216.3C354 216.3 353.07 215.37 353.07 214.22C353.07 213.07 354 212.14 355.15 212.14C356.3 212.14 357.23 213.07 357.23 214.22Z" fill="white"/>
<path opacity="0.25" d="M369.54 214.22C369.54 215.37 368.61 216.3 367.46 216.3C366.31 216.3 365.38 215.37 365.38 214.22C365.38 213.07 366.31 212.14 367.46 212.14C368.61 212.14 369.54 213.07 369.54 214.22Z" fill="white"/>
<path opacity="0.25" d="M379.76 216.3C380.908 216.3 381.84 215.369 381.84 214.22C381.84 213.071 380.908 212.14 379.76 212.14C378.611 212.14 377.68 213.071 377.68 214.22C377.68 215.369 378.611 216.3 379.76 216.3Z" fill="white"/>
<path opacity="0.25" d="M392.07 216.3C393.219 216.3 394.15 215.369 394.15 214.22C394.15 213.071 393.219 212.14 392.07 212.14C390.921 212.14 389.99 213.071 389.99 214.22C389.99 215.369 390.921 216.3 392.07 216.3Z" fill="white"/>
<path opacity="0.25" d="M404.38 216.3C405.528 216.3 406.46 215.369 406.46 214.22C406.46 213.071 405.528 212.14 404.38 212.14C403.231 212.14 402.3 213.071 402.3 214.22C402.3 215.369 403.231 216.3 404.38 216.3Z" fill="white"/>
<path opacity="0.25" d="M318.23 204.81C319.378 204.81 320.31 203.879 320.31 202.73C320.31 201.581 319.378 200.65 318.23 200.65C317.081 200.65 316.15 201.581 316.15 202.73C316.15 203.879 317.081 204.81 318.23 204.81Z" fill="white"/>
<path opacity="0.25" d="M332.62 202.73C332.62 203.88 331.69 204.81 330.54 204.81C329.39 204.81 328.46 203.88 328.46 202.73C328.46 201.58 329.39 200.65 330.54 200.65C331.69 200.65 332.62 201.59 332.62 202.73Z" fill="white"/>
<path opacity="0.25" d="M344.92 202.73C344.92 203.88 343.99 204.81 342.84 204.81C341.69 204.81 340.76 203.88 340.76 202.73C340.76 201.58 341.69 200.65 342.84 200.65C343.99 200.66 344.92 201.59 344.92 202.73Z" fill="white"/>
<path opacity="0.25" d="M357.23 202.73C357.23 203.88 356.3 204.81 355.15 204.81C354 204.81 353.07 203.88 353.07 202.73C353.07 201.58 354 200.65 355.15 200.65C356.3 200.66 357.23 201.59 357.23 202.73Z" fill="white"/>
<path opacity="0.25" d="M369.54 202.73C369.54 203.88 368.61 204.81 367.46 204.81C366.31 204.81 365.38 203.88 365.38 202.73C365.38 201.58 366.31 200.65 367.46 200.65C368.61 200.65 369.54 201.59 369.54 202.73Z" fill="white"/>
<path opacity="0.25" d="M379.76 204.81C380.908 204.81 381.84 203.879 381.84 202.73C381.84 201.581 380.908 200.65 379.76 200.65C378.611 200.65 377.68 201.581 377.68 202.73C377.68 203.879 378.611 204.81 379.76 204.81Z" fill="white"/>
<path opacity="0.25" d="M392.07 204.81C393.219 204.81 394.15 203.879 394.15 202.73C394.15 201.581 393.219 200.65 392.07 200.65C390.921 200.65 389.99 201.581 389.99 202.73C389.99 203.879 390.921 204.81 392.07 204.81Z" fill="white"/>
<path opacity="0.25" d="M404.38 204.81C405.528 204.81 406.46 203.879 406.46 202.73C406.46 201.581 405.528 200.65 404.38 200.65C403.231 200.65 402.3 201.581 402.3 202.73C402.3 203.879 403.231 204.81 404.38 204.81Z" fill="white"/>
<path opacity="0.25" d="M320.31 191.25C320.31 192.4 319.38 193.33 318.23 193.33C317.08 193.33 316.15 192.4 316.15 191.25C316.15 190.1 317.08 189.17 318.23 189.17C319.38 189.17 320.31 190.1 320.31 191.25Z" fill="white"/>
<path opacity="0.25" d="M332.62 191.25C332.62 192.4 331.69 193.33 330.54 193.33C329.39 193.33 328.46 192.4 328.46 191.25C328.46 190.1 329.39 189.17 330.54 189.17C331.69 189.17 332.62 190.1 332.62 191.25Z" fill="white"/>
<path opacity="0.25" d="M344.92 191.25C344.92 192.4 343.99 193.33 342.84 193.33C341.69 193.33 340.76 192.4 340.76 191.25C340.76 190.1 341.69 189.17 342.84 189.17C343.99 189.17 344.92 190.1 344.92 191.25Z" fill="white"/>
<path opacity="0.25" d="M357.23 191.25C357.23 192.4 356.3 193.33 355.15 193.33C354 193.33 353.07 192.4 353.07 191.25C353.07 190.1 354 189.17 355.15 189.17C356.3 189.17 357.23 190.1 357.23 191.25Z" fill="white"/>
<path opacity="0.25" d="M369.54 191.25C369.54 192.4 368.61 193.33 367.46 193.33C366.31 193.33 365.38 192.4 365.38 191.25C365.38 190.1 366.31 189.17 367.46 189.17C368.61 189.17 369.54 190.1 369.54 191.25Z" fill="white"/>
<path opacity="0.25" d="M381.84 191.25C381.84 192.4 380.91 193.33 379.76 193.33C378.61 193.33 377.68 192.4 377.68 191.25C377.68 190.1 378.61 189.17 379.76 189.17C380.91 189.17 381.84 190.1 381.84 191.25Z" fill="white"/>
<path opacity="0.25" d="M394.15 191.25C394.15 192.4 393.22 193.33 392.07 193.33C390.92 193.33 389.99 192.4 389.99 191.25C389.99 190.1 390.92 189.17 392.07 189.17C393.22 189.17 394.15 190.1 394.15 191.25Z" fill="white"/>
<path opacity="0.25" d="M406.45 191.25C406.45 192.4 405.52 193.33 404.37 193.33C403.22 193.33 402.29 192.4 402.29 191.25C402.29 190.1 403.22 189.17 404.37 189.17C405.52 189.17 406.45 190.1 406.45 191.25Z" fill="white"/>
<path opacity="0.25" d="M320.31 179.77C320.31 180.92 319.38 181.85 318.23 181.85C317.08 181.85 316.15 180.92 316.15 179.77C316.15 178.62 317.08 177.69 318.23 177.69C319.38 177.69 320.31 178.62 320.31 179.77Z" fill="white"/>
<path opacity="0.25" d="M332.62 179.77C332.62 180.92 331.69 181.85 330.54 181.85C329.39 181.85 328.46 180.92 328.46 179.77C328.46 178.62 329.39 177.69 330.54 177.69C331.69 177.69 332.62 178.62 332.62 179.77Z" fill="white"/>
<path opacity="0.25" d="M344.92 179.77C344.92 180.92 343.99 181.85 342.84 181.85C341.69 181.85 340.76 180.92 340.76 179.77C340.76 178.62 341.69 177.69 342.84 177.69C343.99 177.69 344.92 178.62 344.92 179.77Z" fill="white"/>
<path opacity="0.25" d="M357.23 179.77C357.23 180.92 356.3 181.85 355.15 181.85C354 181.85 353.07 180.92 353.07 179.77C353.07 178.62 354 177.69 355.15 177.69C356.3 177.69 357.23 178.62 357.23 179.77Z" fill="white"/>
<path opacity="0.25" d="M369.54 179.77C369.54 180.92 368.61 181.85 367.46 181.85C366.31 181.85 365.38 180.92 365.38 179.77C365.38 178.62 366.31 177.69 367.46 177.69C368.61 177.69 369.54 178.62 369.54 179.77Z" fill="white"/>
<path opacity="0.25" d="M381.84 179.77C381.84 180.92 380.91 181.85 379.76 181.85C378.61 181.85 377.68 180.92 377.68 179.77C377.68 178.62 378.61 177.69 379.76 177.69C380.91 177.69 381.84 178.62 381.84 179.77Z" fill="white"/>
<path opacity="0.25" d="M394.15 179.77C394.15 180.92 393.22 181.85 392.07 181.85C390.92 181.85 389.99 180.92 389.99 179.77C389.99 178.62 390.92 177.69 392.07 177.69C393.22 177.69 394.15 178.62 394.15 179.77Z" fill="white"/>
<path opacity="0.25" d="M406.45 179.77C406.45 180.92 405.52 181.85 404.37 181.85C403.22 181.85 402.29 180.92 402.29 179.77C402.29 178.62 403.22 177.69 404.37 177.69C405.52 177.69 406.45 178.62 406.45 179.77Z" fill="white"/>
<path opacity="0.25" d="M318.23 170.37C319.378 170.37 320.31 169.439 320.31 168.29C320.31 167.141 319.378 166.21 318.23 166.21C317.081 166.21 316.15 167.141 316.15 168.29C316.15 169.439 317.081 170.37 318.23 170.37Z" fill="white"/>
<path opacity="0.25" d="M332.62 168.29C332.62 169.44 331.69 170.37 330.54 170.37C329.39 170.37 328.46 169.44 328.46 168.29C328.46 167.14 329.39 166.21 330.54 166.21C331.69 166.21 332.62 167.14 332.62 168.29Z" fill="white"/>
<path opacity="0.25" d="M344.92 168.29C344.92 169.44 343.99 170.37 342.84 170.37C341.69 170.37 340.76 169.44 340.76 168.29C340.76 167.14 341.69 166.21 342.84 166.21C343.99 166.21 344.92 167.14 344.92 168.29Z" fill="white"/>
<path opacity="0.25" d="M357.23 168.29C357.23 169.44 356.3 170.37 355.15 170.37C354 170.37 353.07 169.44 353.07 168.29C353.07 167.14 354 166.21 355.15 166.21C356.3 166.21 357.23 167.14 357.23 168.29Z" fill="white"/>
<path opacity="0.25" d="M369.54 168.29C369.54 169.44 368.61 170.37 367.46 170.37C366.31 170.37 365.38 169.44 365.38 168.29C365.38 167.14 366.31 166.21 367.46 166.21C368.61 166.21 369.54 167.14 369.54 168.29Z" fill="white"/>
<path opacity="0.25" d="M379.76 170.37C380.908 170.37 381.84 169.439 381.84 168.29C381.84 167.141 380.908 166.21 379.76 166.21C378.611 166.21 377.68 167.141 377.68 168.29C377.68 169.439 378.611 170.37 379.76 170.37Z" fill="white"/>
<path opacity="0.25" d="M392.07 170.37C393.219 170.37 394.15 169.439 394.15 168.29C394.15 167.141 393.219 166.21 392.07 166.21C390.921 166.21 389.99 167.141 389.99 168.29C389.99 169.439 390.921 170.37 392.07 170.37Z" fill="white"/>
<path opacity="0.25" d="M404.38 170.37C405.528 170.37 406.46 169.439 406.46 168.29C406.46 167.141 405.528 166.21 404.38 166.21C403.231 166.21 402.3 167.141 402.3 168.29C402.3 169.439 403.231 170.37 404.38 170.37Z" fill="white"/>
<path opacity="0.25" d="M318.23 158.88C319.378 158.88 320.31 157.949 320.31 156.8C320.31 155.651 319.378 154.72 318.23 154.72C317.081 154.72 316.15 155.651 316.15 156.8C316.15 157.949 317.081 158.88 318.23 158.88Z" fill="white"/>
<path opacity="0.25" d="M332.62 156.8C332.62 157.95 331.69 158.88 330.54 158.88C329.39 158.88 328.46 157.95 328.46 156.8C328.46 155.65 329.39 154.72 330.54 154.72C331.69 154.72 332.62 155.65 332.62 156.8Z" fill="white"/>
<path opacity="0.25" d="M344.92 156.8C344.92 157.95 343.99 158.88 342.84 158.88C341.69 158.88 340.76 157.95 340.76 156.8C340.76 155.65 341.69 154.72 342.84 154.72C343.99 154.72 344.92 155.65 344.92 156.8Z" fill="white"/>
<path opacity="0.25" d="M357.23 156.8C357.23 157.95 356.3 158.88 355.15 158.88C354 158.88 353.07 157.95 353.07 156.8C353.07 155.65 354 154.72 355.15 154.72C356.3 154.72 357.23 155.65 357.23 156.8Z" fill="white"/>
<path opacity="0.25" d="M369.54 156.8C369.54 157.95 368.61 158.88 367.46 158.88C366.31 158.88 365.38 157.95 365.38 156.8C365.38 155.65 366.31 154.72 367.46 154.72C368.61 154.72 369.54 155.65 369.54 156.8Z" fill="white"/>
<path opacity="0.25" d="M379.76 158.88C380.908 158.88 381.84 157.949 381.84 156.8C381.84 155.651 380.908 154.72 379.76 154.72C378.611 154.72 377.68 155.651 377.68 156.8C377.68 157.949 378.611 158.88 379.76 158.88Z" fill="white"/>
<path opacity="0.25" d="M392.07 158.88C393.219 158.88 394.15 157.949 394.15 156.8C394.15 155.651 393.219 154.72 392.07 154.72C390.921 154.72 389.99 155.651 389.99 156.8C389.99 157.949 390.921 158.88 392.07 158.88Z" fill="white"/>
<path opacity="0.25" d="M404.38 158.88C405.528 158.88 406.46 157.949 406.46 156.8C406.46 155.651 405.528 154.72 404.38 154.72C403.231 154.72 402.3 155.651 402.3 156.8C402.3 157.949 403.231 158.88 404.38 158.88Z" fill="white"/>
<path opacity="0.25" d="M320.31 145.32C320.31 146.47 319.38 147.4 318.23 147.4C317.08 147.4 316.15 146.47 316.15 145.32C316.15 144.17 317.08 143.24 318.23 143.24C319.38 143.24 320.31 144.17 320.31 145.32Z" fill="white"/>
<path opacity="0.25" d="M332.62 145.32C332.62 146.47 331.69 147.4 330.54 147.4C329.39 147.4 328.46 146.47 328.46 145.32C328.46 144.17 329.39 143.24 330.54 143.24C331.69 143.24 332.62 144.17 332.62 145.32Z" fill="white"/>
<path opacity="0.25" d="M344.92 145.32C344.92 146.47 343.99 147.4 342.84 147.4C341.69 147.4 340.76 146.47 340.76 145.32C340.76 144.17 341.69 143.24 342.84 143.24C343.99 143.24 344.92 144.17 344.92 145.32Z" fill="white"/>
<path opacity="0.25" d="M357.23 145.32C357.23 146.47 356.3 147.4 355.15 147.4C354 147.4 353.07 146.47 353.07 145.32C353.07 144.17 354 143.24 355.15 143.24C356.3 143.24 357.23 144.17 357.23 145.32Z" fill="white"/>
<path opacity="0.25" d="M369.54 145.32C369.54 146.47 368.61 147.4 367.46 147.4C366.31 147.4 365.38 146.47 365.38 145.32C365.38 144.17 366.31 143.24 367.46 143.24C368.61 143.24 369.54 144.17 369.54 145.32Z" fill="white"/>
<path opacity="0.25" d="M381.84 145.32C381.84 146.47 380.91 147.4 379.76 147.4C378.61 147.4 377.68 146.47 377.68 145.32C377.68 144.17 378.61 143.24 379.76 143.24C380.91 143.24 381.84 144.17 381.84 145.32Z" fill="white"/>
<path opacity="0.25" d="M394.15 145.32C394.15 146.47 393.22 147.4 392.07 147.4C390.92 147.4 389.99 146.47 389.99 145.32C389.99 144.17 390.92 143.24 392.07 143.24C393.22 143.24 394.15 144.17 394.15 145.32Z" fill="white"/>
<path opacity="0.25" d="M406.45 145.32C406.45 146.47 405.52 147.4 404.37 147.4C403.22 147.4 402.29 146.47 402.29 145.32C402.29 144.17 403.22 143.24 404.37 143.24C405.52 143.24 406.45 144.17 406.45 145.32Z" fill="white"/>
<path d="M370.56 192L382.82 164.94C383.29 163.9 384.2 163.12 385.3 162.82L435.16 149.14C436 148.91 437.73 150.99 437.34 151.78L419.2 185.46C418.62 186.64 417.61 187.56 416.38 188.03L369.49 205.81L370.56 192Z" fill="#2A3551"/>
<path d="M371.45 193.99L383.71 166.93C384.18 165.89 385.09 165.11 386.19 164.81L436.05 151.13C436.89 150.9 437.62 151.77 437.23 152.56L420.09 187.45C419.51 188.63 418.5 189.55 417.27 190.02L370.38 207.8L371.45 193.99Z" fill="#364380"/>
<path d="M383.56 200.37C383.56 200.37 384.57 202.72 379.61 207.28C374.64 211.84 367.13 208.89 367.13 208.89L347.21 224C344.39 226.11 341.02 227.19 337.64 227.19C335.12 227.19 332.6 226.6 330.28 225.39C326.01 223.17 322.98 219.15 322.01 214.44L321.87 213.76L320.57 207.44L331.18 201.22L339.65 196.25L339.93 197.83L341.25 205.13L362.91 194.53C362.91 194.53 367.27 187.55 369.35 185.08C371.43 182.6 373.77 182.2 374.51 183.81C375.26 185.42 370.56 191.99 370.56 191.99C370.56 191.99 372.3 191.85 377.54 190.04C382.77 188.23 386.19 184.48 387.59 185.62C389 186.77 388.2 190.04 386.32 192.6C386.79 197.09 383.56 200.37 383.56 200.37Z" fill="#F0C9CF"/>
<path d="M339.93 197.84L321.87 213.77L320.57 207.45L331.18 201.23L339.64 196.26L339.93 197.84Z" fill="#D683A7"/>
<path d="M366.93 145.88C366.1 150.58 363.45 155.32 356.34 156.09C350.72 156.71 346.8 155.01 344.1 152.69C342.88 151.63 341.9 150.44 341.15 149.29C340.44 148.22 339.9 147.17 339.51 146.25L342.99 144.65L345.48 145.32H363.11L365.31 145.61C365.85 145.69 366.4 145.77 366.93 145.88Z" fill="white"/>
<path d="M356.88 152.9C347.02 154 342.99 144.65 342.99 144.65L345.01 143.78C345.01 143.78 345.35 135.93 344.61 131.37L347.43 132.09L361.31 135.66C360.03 138.66 360.36 142.87 360.52 144.21C360.55 144.48 360.57 144.64 360.57 144.64L363.11 145.31C363.11 145.32 363.52 152.16 356.88 152.9Z" fill="#F0C9CF"/>
<path d="M360.52 144.22C354.96 144.35 347.9 142.41 345.74 135.15C345.25 133.5 345.98 132.56 347.43 132.09L361.31 135.66C360.02 138.67 360.36 142.87 360.52 144.22Z" fill="#D683A7"/>
<path d="M342.26 126.41L337.21 120.21C334.6 117 334.87 112.33 337.83 109.45C335.1 102.92 338.96 95.5101 345.87 93.9901L351.02 92.8601C351.94 92.6601 352.8 92.2701 353.56 91.7101L358.51 88.1001C359.71 87.2301 361.32 87.1701 362.57 87.9501C364.19 88.9601 364.76 91.0501 363.87 92.7401L362.35 95.6101C362.17 95.9501 362.56 96.3101 362.88 96.1101L371.83 90.5201C372.98 89.8001 374.49 90.0101 375.4 91.0201C376.28 92.0001 376.37 93.4601 375.6 94.5301L369.43 103.18C369.22 103.48 369.52 103.88 369.86 103.76L371.37 103.22C372.92 102.67 374.64 103.28 375.5 104.68C376.32 106.02 376.15 107.73 375.07 108.88C372.12 112.02 366.58 118.3 365.84 121.86C364.86 126.75 342.26 126.41 342.26 126.41Z" fill="#1F2251"/>
<path d="M366.59 116.73C366.42 117.69 366.26 119.14 366.26 121.25C366.26 122.64 366.53 124.94 366.56 127.45C366.58 129.2 366.49 131.07 366.11 132.83C365.23 136.91 362.8 140.37 356.68 140.37C344.14 140.37 342.87 127.96 342.87 127.96C342.87 127.96 342.53 130.94 339.72 129.54C337.62 128.49 336.9 123.7 339.28 122.56C340.68 121.89 342.17 122.8 343.17 123.66C343.59 124.02 344.23 123.68 344.18 123.13L343.68 117.28C347.1 118.32 359.37 114.83 364.2 110.07C364.28 111.35 365.17 112.81 365.92 113.83C366.51 114.67 366.77 115.71 366.59 116.73Z" fill="#F0C9CF"/>
<path d="M357.73 130.38L358.85 129.72C359.6 129.28 359.91 128.35 359.56 127.55L357.73 123.32" stroke="#C85E8B" stroke-width="0.5252" stroke-miterlimit="9" stroke-linecap="round"/>
<path d="M353.7 125.32C353.7 125.88 353.34 126.33 352.9 126.33C352.46 126.33 352.1 125.88 352.1 125.32C352.1 124.76 352.46 124.31 352.9 124.31C353.34 124.32 353.7 124.77 353.7 125.32Z" fill="black"/>
<path d="M363.29 124.75C363.29 125.31 362.93 125.76 362.49 125.76C362.05 125.76 361.69 125.31 361.69 124.75C361.69 124.19 362.05 123.74 362.49 123.74C362.93 123.75 363.29 124.2 363.29 124.75Z" fill="black"/>
<path d="M348.99 121.96C348.99 121.96 350.65 119.45 353.97 120.56" stroke="#1F2251" stroke-width="0.7879" stroke-miterlimit="10" stroke-linecap="round" stroke-linejoin="round"/>
<path d="M364.99 120.69C364.99 120.69 363.01 118.5 359.82 120.51" stroke="#1F2251" stroke-width="0.7879" stroke-miterlimit="10" stroke-linecap="round" stroke-linejoin="round"/>
<path d="M353.97 132.81L358.72 133.03C358.72 133.03 358.56 135.49 356.17 135.33C353.77 135.17 353.97 132.81 353.97 132.81Z" fill="white"/>
<path d="M339.04 124.9C340.45 124.03 341.72 125.13 341.45 127.25" stroke="#C85E8B" stroke-width="0.5252" stroke-miterlimit="9" stroke-linecap="round"/>
<path d="M353.26 130.07C353.26 131.63 352 132.89 350.44 132.89C348.88 132.89 347.62 131.63 347.62 130.07C347.62 128.51 348.88 127.25 350.44 127.25C352 127.25 353.26 128.51 353.26 130.07Z" fill="#EAB7C0"/>
<path d="M366.57 127.44C366.59 129.19 366.5 131.06 366.12 132.82C365.94 132.86 365.75 132.88 365.56 132.88C364.01 132.88 362.74 131.62 362.74 130.06C362.74 128.51 364 127.24 365.56 127.24C365.91 127.25 366.25 127.32 366.57 127.44Z" fill="#EAB7C0"/>
<path d="M341.25 205.13L333.28 209.16" stroke="#C85E8B" stroke-width="0.5252" stroke-miterlimit="9" stroke-linecap="round"/>
<path d="M386.31 192.59C384.57 196.08 374.96 197.43 374.96 197.43" stroke="#C85E8B" stroke-width="0.5252" stroke-miterlimit="9" stroke-linecap="round"/>
<path d="M383.56 200.37C379.67 204.53 373.23 203.52 373.23 203.52" stroke="#C85E8B" stroke-width="0.5252" stroke-miterlimit="9" stroke-linecap="round"/>
<path d="M339.64 196.26L336.31 172.11" stroke="#1F2251" stroke-width="0.5252" stroke-miterlimit="10" stroke-linecap="round" stroke-linejoin="round"/>
<path d="M380.64 215.46L356.34 235.94" stroke="#1F2251" stroke-width="0.5252" stroke-miterlimit="10" stroke-linecap="round" stroke-linejoin="round"/>
<path d="M335.42 403.26L312.74 400.33C311.2 400.13 310.11 398.72 310.31 397.18L310.77 393.58C310.97 392.04 312.38 390.95 313.92 391.15L336.6 394.08C338.14 394.28 339.23 395.69 339.03 397.23L338.57 400.83C338.37 402.37 336.96 403.46 335.42 403.26Z" fill="#008F8F" fill-opacity="0.7"/>
<path d="M313.47 391.14L337.04 394.18" stroke="#1F2251" stroke-width="0.5252" stroke-miterlimit="10" stroke-linecap="round" stroke-linejoin="round"/>
<path d="M428.85 398.52L406.9 404.93C405.41 405.36 403.85 404.51 403.41 403.02L402.39 399.53C401.95 398.04 402.81 396.48 404.3 396.04L426.25 389.63C427.74 389.19 429.3 390.05 429.74 391.54L430.76 395.03C431.19 396.53 430.34 398.09 428.85 398.52Z" fill="#008F8F" fill-opacity="0.7"/>
<path d="M403.89 396.21L426.7 389.56" stroke="#1F2251" stroke-width="0.5252" stroke-miterlimit="10" stroke-linecap="round" stroke-linejoin="round"/>
<path opacity="0.25" d="M386.5 168.88C387.83 167.9 389.51 167.92 390.25 168.92C390.99 169.92 390.52 171.54 389.19 172.52C387.86 173.5 386.18 173.48 385.44 172.48C384.7 171.47 385.17 169.86 386.5 168.88Z" fill="white"/>
<path opacity="0.25" d="M387.16 169.76C387.84 169.26 388.71 169.26 389.09 169.78C389.47 170.3 389.23 171.12 388.55 171.63C387.87 172.13 387 172.13 386.62 171.61C386.23 171.09 386.48 170.27 387.16 169.76Z" fill="white"/>
<path d="M368.49 263.13L362.15 292.5" stroke="#1F2251" stroke-width="0.5252" stroke-miterlimit="10" stroke-linecap="round" stroke-linejoin="round"/>
<path d="M453.89 182.9H453.23C453.46 182.84 453.68 182.85 453.89 182.9Z" fill="#364380"/>
<path d="M453.23 182.9C453.22 182.9 453.2 182.9 453.19 182.91V182.9H453.23Z" fill="#364380"/>
<path d="M503.09 368.86L501.48 414.94L506.31 423.25L517.98 418.7L521.06 373.01" fill="#F0C9CF"/>
<path d="M476.57 426.6L502.02 411.86L506.85 418.7H517.98L519.19 429.03H477.23C475.89 429.02 475.42 427.26 476.57 426.6Z" fill="#6096BA" fill-opacity="0.6"/>
<path d="M580.92 368.86L595.58 414.94L590.76 423.25L579.09 418.7L562.95 373.01" fill="#F0C9CF"/>
<path d="M620.5 426.6L595.05 411.86L590.22 418.7H579.09L577.88 429.03H619.84C621.17 429.02 621.65 427.26 620.5 426.6Z" fill="#6096BA" fill-opacity="0.6"/>
<path d="M504.53 217.2L498.5 391.13L522.37 392.88L531.49 284.12L567.43 396.21L588.62 389.55C588.62 389.55 559.92 271.24 556.7 254.34C553.48 237.44 555.09 228.59 549.99 216.79L504.53 217.2Z" fill="#6096BA"/>
<path d="M523.61 100.4C516.73 98.52 511.5 108.58 513.11 121.05C514.72 133.52 503.99 145.46 505.2 150.55C506.41 155.65 530.28 162.75 546.24 162.62C562.2 162.49 567.16 155.51 564.21 150.55C561.26 145.59 556.57 140.76 556.97 125.81C557.37 110.86 546.98 82.96 523.61 100.4Z" fill="#1F2251"/>
<path d="M490.71 171.61L481.86 191.46L468.18 159.37C468.18 159.37 466.44 148.41 465.03 145.33C463.62 142.25 464.09 138.15 462.21 137.55C460.33 136.95 459.66 140.3 459.66 143.18C459.66 146.06 459.19 148.81 459.19 148.81C459.19 148.81 451.34 141.97 450.88 139.82C450.41 137.67 450.68 130.37 448.94 129.43C447.2 128.49 445.25 130.64 444.85 136.87C444.45 143.11 456.99 161.28 456.99 161.28L466.18 205.8L491.93 210.49L507.22 185.41L490.71 171.61Z" fill="#F0C9CF"/>
<path d="M569.57 177.46L560.09 184.34L559.2 184.98L552.13 190.12L551.06 218.15L546.74 218.07L545.85 218.05L533.39 217.8L532.5 217.79L520.04 217.54L519.15 217.52L506.69 217.27L505.8 217.25L504.53 217.23C504.53 217.23 505.07 210.38 503.06 200.39C501.04 190.4 503.86 183.53 503.86 183.53L490.72 171.63L497.45 161.17C499.51 157.97 502.41 155.4 505.8 153.76C506.09 153.61 506.39 153.48 506.69 153.35C507.67 152.92 508.69 152.57 509.73 152.31L519.15 149.89L519.66 149.75L520.04 149.66L523.23 148.83L532.5 148.86H533.39L543.49 148.89L545.85 150.13L546.74 150.6L546.76 150.61L555.25 155.05C556.68 155.8 558 156.7 559.2 157.75C559.5 158 559.81 158.28 560.09 158.56C562.16 160.57 563.81 163.01 564.89 165.75L569.57 177.46Z" fill="#008F8F"/>
<path opacity="0.25" d="M506.69 153.33V217.25L505.8 217.23V153.74C506.09 153.59 506.39 153.45 506.69 153.33Z" fill="white"/>
<path opacity="0.25" d="M520.04 149.64V217.52L519.15 217.5V149.87L519.66 149.73L520.04 149.64Z" fill="white"/>
<path opacity="0.25" d="M533.39 148.84V217.79L532.5 217.77V148.84H533.39Z" fill="white"/>
<path opacity="0.25" d="M546.75 150.59V218.06L545.85 218.04V150.11L546.75 150.59Z" fill="white"/>
<path opacity="0.25" d="M560.1 158.55V184.34L559.21 184.98V157.74C559.51 157.99 559.81 158.26 560.1 158.55Z" fill="white"/>
<path d="M546.77 150.6C544 156.25 536.7 159.55 527.74 158.96C520.22 158.46 519.29 153.44 519.67 149.74L523.24 148.82L543.49 148.88L546.77 150.6Z" fill="white"/>
<path d="M543.49 148.87C543.49 148.87 539.79 156.24 530.34 156.24C520.89 156.24 523.24 148.8 523.24 148.8L525.92 147.93L525.76 143.32L525.52 136.6L541.61 131.7C541.27 132.37 541.03 133.34 540.87 134.45C540.12 139.53 540.93 147.93 540.93 147.93L543.49 148.87Z" fill="#F0C9CF"/>
<path d="M541.61 131.71C541.27 132.38 541.03 133.35 540.87 134.46C540.87 134.47 540.86 134.47 540.86 134.48C536.34 143.57 528.74 143.67 525.75 143.33L525.51 136.61L541.61 131.71Z" fill="#D683A7"/>
<path d="M523.93 107.51C525.41 115.43 542.34 120.9 543.54 121.81C544.24 122.34 544.47 123.6 544.54 124.55C544.55 124.75 544.83 124.79 544.9 124.6C545.33 123.43 546.18 121.76 547.62 121.59C549.86 121.32 552.02 124.15 550.74 127.54C549.46 130.93 544.35 129.13 544.35 129.13C544.35 129.13 540.18 139.28 530.6 139.56C521.02 139.84 518.9 131.72 519.63 126.73C520.36 121.74 520.28 119.26 519.86 116.33C519.45 113.39 523.13 111.32 523.93 107.51Z" fill="#F0C9CF"/>
<path d="M548.38 123.54C547.58 123.77 546.68 125.97 547.04 126.99" stroke="#C85E8B" stroke-width="0.5252" stroke-miterlimit="9" stroke-linecap="round"/>
<path d="M529.17 129.86L528.05 129.2C527.3 128.76 526.99 127.83 527.34 127.03L529.17 122.8" stroke="#C85E8B" stroke-width="0.5252" stroke-miterlimit="9" stroke-linecap="round"/>
<path d="M533.2 124.8C533.2 125.36 533.56 125.81 534 125.81C534.44 125.81 534.8 125.36 534.8 124.8C534.8 124.24 534.44 123.79 534 123.79C533.56 123.8 533.2 124.25 533.2 124.8Z" fill="black"/>
<path d="M523.61 124.23C523.61 124.79 523.97 125.24 524.41 125.24C524.85 125.24 525.21 124.79 525.21 124.23C525.21 123.67 524.85 123.22 524.41 123.22C523.97 123.23 523.61 123.68 523.61 124.23Z" fill="black"/>
<path d="M537.38 119.37C537.38 119.37 535.36 117.14 532.25 118.73" stroke="#1F2251" stroke-width="0.7879" stroke-miterlimit="10" stroke-linecap="round" stroke-linejoin="round"/>
<path d="M521.82 119.28C521.82 119.28 523.8 117.09 526.99 119.1" stroke="#1F2251" stroke-width="0.7879" stroke-miterlimit="10" stroke-linecap="round" stroke-linejoin="round"/>
<path d="M527.07 124.49C527.07 126.75 525.24 128.58 522.98 128.58C520.72 128.58 518.89 126.75 518.89 124.49C518.89 122.23 520.72 120.4 522.98 120.4C525.24 120.4 527.07 122.23 527.07 124.49Z" stroke="#647BF4" stroke-width="0.7879" stroke-miterlimit="10"/>
<path d="M538.43 124.49C538.43 126.75 536.6 128.58 534.34 128.58C532.08 128.58 530.25 126.75 530.25 124.49C530.25 122.23 532.08 120.4 534.34 120.4C536.59 120.4 538.43 122.23 538.43 124.49Z" stroke="#647BF4" stroke-width="0.7879" stroke-miterlimit="10"/>
<path d="M526.96 123.54C526.96 123.54 528.69 121.87 530.36 123.54" stroke="#647BF4" stroke-width="0.7879" stroke-miterlimit="10"/>
<path d="M530.35 133.52C530.35 133.52 532.96 134.59 535.1 132.76" stroke="#C85E8B" stroke-width="0.5252" stroke-miterlimit="9" stroke-linecap="round"/>
<path d="M501.36 216.8H461.63C460.97 216.82 460.37 216.42 460.18 215.75L451.66 184.83C451.45 184.05 451.9 183.25 452.68 183.04L453.17 182.9H453.18C453.19 182.89 453.21 182.89 453.22 182.89H492.96L501.36 216.8Z" fill="#99A3CA"/>
<path d="M477.69 201.37C477.69 203.07 476.31 204.45 474.61 204.45C472.91 204.45 471.53 203.07 471.53 201.37C471.53 199.67 472.91 198.29 474.61 198.29C476.31 198.29 477.69 199.67 477.69 201.37Z" fill="#E6E9FC"/>
<path d="M501.37 216.8H532.9C533.7 216.8 534.34 216.15 534.34 215.36V214.83C534.34 214.03 533.69 213.39 532.9 213.39H501.37C500.57 213.39 499.93 214.04 499.93 214.83V215.36C499.92 216.15 500.57 216.8 501.37 216.8Z" fill="#7988B8"/>
<path d="M491.45 184.82L499.83 215.22C500.04 215.99 500.84 216.44 501.6 216.23L502.12 216.09C502.89 215.88 503.34 215.08 503.13 214.32L494.75 183.92C494.54 183.15 493.74 182.7 492.98 182.91L492.46 183.05C491.69 183.26 491.24 184.05 491.45 184.82Z" fill="#7988B8"/>
<path d="M583.9 225.65C583.9 229.53 582.2 233.28 579.11 235.83C574.57 239.57 568.11 239.84 563.27 236.51L541.18 221.31C541.18 221.31 529.16 223.95 523.75 223.45C518.34 222.96 512.57 220.1 512.53 218.99C512.48 217.87 534.3 215.59 533.27 214.69C532.24 213.8 522.5 213.71 522.37 211.61C522.24 209.51 524.69 208.79 528.76 208.52C532.84 208.25 538.01 210.31 538.01 210.31L560.12 213.38L553.84 195.06L552.14 190.11L569.58 177.45L570.71 181.13L583.32 221.76C583.71 223.05 583.9 224.36 583.9 225.65Z" fill="#F0C9CF"/>
<path d="M569.57 177.46L570.71 181.13L553.84 195.06L552.13 190.12L569.57 177.46Z" fill="#D683A7"/>
<path d="M560.11 213.38L569.57 214.65" stroke="#C85E8B" stroke-width="0.5252" stroke-miterlimit="9" stroke-linecap="round"/>
<path d="M507.73 215.09C507.73 215.38 507.5 215.61 507.21 215.61C506.92 215.61 506.69 215.38 506.69 215.09C506.69 214.8 506.92 214.57 507.21 214.57C507.5 214.57 507.73 214.8 507.73 215.09Z" fill="#1F2251"/>
<path d="M509.84 215.09C509.84 215.38 509.61 215.61 509.32 215.61C509.03 215.61 508.8 215.38 508.8 215.09C508.8 214.8 509.03 214.57 509.32 214.57C509.61 214.57 509.84 214.8 509.84 215.09Z" fill="#1F2251"/>
<path d="M521.64 399.2L498.78 398.43C497.23 398.38 496.01 397.08 496.07 395.53L496.19 391.9C496.24 390.35 497.54 389.13 499.09 389.19L521.95 389.96C523.5 390.01 524.72 391.31 524.66 392.86L524.54 396.49C524.49 398.04 523.19 399.25 521.64 399.2Z" fill="#99A3CA"/>
<path d="M590.35 394.04L568.44 400.6C566.95 401.05 565.39 400.2 564.94 398.71L563.9 395.23C563.45 393.74 564.3 392.18 565.79 391.73L587.7 385.17C589.19 384.72 590.75 385.57 591.2 387.06L592.24 390.54C592.68 392.02 591.83 393.59 590.35 394.04Z" fill="#99A3CA"/>
<path d="M524.6 261.41L535.67 297.18" stroke="#1F2251" stroke-width="0.5252" stroke-miterlimit="10" stroke-linecap="round" stroke-linejoin="round"/>
<path d="M506.69 199.57C512.57 205 522.98 205.81 522.98 205.81" stroke="#1F2251" stroke-width="0.5252" stroke-miterlimit="10" stroke-linecap="round" stroke-linejoin="round"/>
<path d="M552.13 190.12L544.62 177.46" stroke="#1F2251" stroke-width="0.5252" stroke-miterlimit="10" stroke-linecap="round" stroke-linejoin="round"/>
<path d="M503.86 183.51C507.08 177.11 507.73 168.79 507.73 168.79" stroke="#1F2251" stroke-width="0.5252" stroke-miterlimit="10" stroke-linecap="round" stroke-linejoin="round"/>
<path d="M115.87 429.02H641.03" stroke="#97A2D4" stroke-width="2.101" stroke-miterlimit="10" stroke-linecap="round" stroke-linejoin="round"/>
<path d="M492.43 87.4V129.61L481.82 119.01H441.16V87.4H492.43Z" fill="white"/>
<path d="M454.98 95.96H478.6" stroke="#647BF4" stroke-miterlimit="10" stroke-linecap="round" stroke-linejoin="round"/>
<path opacity="0.25" d="M458.89 100.81H478.6" stroke="#647BF4" stroke-miterlimit="10" stroke-linecap="round" stroke-linejoin="round"/>
<path opacity="0.25" d="M454.98 105.66H478.6" stroke="#647BF4" stroke-miterlimit="10" stroke-linecap="round" stroke-linejoin="round"/>
<path opacity="0.25" d="M462.04 110.51H478.6" stroke="#647BF4" stroke-miterlimit="10" stroke-linecap="round" stroke-linejoin="round"/>
<path d="M255.35 111.93V154.14L265.96 143.54H306.62V111.93H255.35Z" fill="white"/>
<path d="M292.79 120.48H269.18" stroke="#EBAF65" stroke-miterlimit="10" stroke-linecap="round" stroke-linejoin="round"/>
<path opacity="0.25" d="M288.88 125.34H269.18" stroke="#647BF4" stroke-miterlimit="10" stroke-linecap="round" stroke-linejoin="round"/>
<path opacity="0.25" d="M292.79 130.19H269.18" stroke="#647BF4" stroke-miterlimit="10" stroke-linecap="round" stroke-linejoin="round"/>
<path opacity="0.25" d="M285.74 135.04H269.18" stroke="#647BF4" stroke-miterlimit="10" stroke-linecap="round" stroke-linejoin="round"/>
</svg>
